<?xml version="1.0" encoding="utf-8"?>
<!-- Generator: Adobe Illustrator 16.0.0, SVG Export Plug-In . SVG Version: 6.00 Build 0)  -->
<!DOCTYPE svg PUBLIC "-//W3C//DTD SVG 1.1//EN" "http://www.w3.org/Graphics/SVG/1.1/DTD/svg11.dtd">
<svg version="1.1" id="Layer_1" xmlns="http://www.w3.org/2000/svg" xmlns:xlink="http://www.w3.org/1999/xlink" x="0px" y="0px"
	 width="164.992px" height="91.496px" viewBox="0 0 164.992 91.496" enable-background="new 0 0 164.992 91.496"
	 xml:space="preserve">
<rect x="13.074" y="38.666" transform="matrix(-0.7071 -0.7071 0.7071 -0.7071 0.6438 88.9317)" fill="#C4C4C4" width="11.333" height="11.333"/>
<g id="_x33_wQ99Z_1_">
	<g>
		<g>
			<path fill="#C4C4C4" d="M7,46.834c-3.85,0-7-3.15-7-7v-23c0-3.85,3.15-7,7-7h23c3.851,0,7,3.15,7,7v23c0,3.85-3.149,7-7,7H7z"/>
		</g>
		<path fill="#010101" d="M30.918,16.93c0,1.521,0,3.041,0,4.562c-8.109,0-16.219,0-24.836,0c0-1.521,0-3.041,0-4.562
			C14.192,16.93,22.301,16.93,30.918,16.93z"/>
		<path fill="#010101" d="M6.082,30.615c0-1.521,0-3.041,0-4.562c8.11,0,16.219,0,24.836,0c0,1.521,0,3.041,0,4.562
			C22.809,30.615,14.699,30.615,6.082,30.615z"/>
		<path fill="#010101" d="M6.082,39.739c0-1.521,0-3.041,0-4.562c6.59,0,13.178,0,20.274,0c0,1.521,0,3.041,0,4.562
			C19.26,39.739,12.672,39.739,6.082,39.739z"/>
	</g> 
	<circle fill="#010101" cx="38.741" cy="9.333" r="9.333"/>
	<text transform="matrix(1 0 0 1 35.2915 14.5005)" fill="#D7D7D7" font-family="'GothamXNarrow-Medium'" font-size="15">9</text>
</g>
</svg>
